<svg xmlns="http://www.w3.org/2000/svg" viewBox="0 0 64 64" fill="none">
  <rect width="64" height="64" rx="8" fill="#1a1a2e"/>
  <path d="M32 12C21 12 12 21 12 32s9 20 20 20 20-9 20-20-9-20-20-20zm0 36c-8.8 0-16-7.2-16-16s7.2-16 16-16 16 7.2 16 16-7.2 16-16 16z" fill="#00d4aa"/>
  <path d="M32 20c-6.6 0-12 5.4-12 12s5.4 12 12 12 12-5.4 12-12-5.4-12-12-12zm0 20c-4.4 0-8-3.6-8-8s3.6-8 8-8 8 3.6 8 8-3.6 8-8 8z" fill="#00d4aa"/>
  <circle cx="32" cy="32" r="4" fill="#00d4aa"/>
  <path d="M26 28l-4-4M38 28l4-4M26 36l-4 4M38 36l4 4" stroke="#00d4aa" stroke-width="2" stroke-linecap="round"/>
</svg>
